inDegrees=yes
name=ik_OwnShooting_orientations2.mot
DataType=double
version=3
OpenSimVersion=4.3-2021-08-27-4bc7ad9
endheader
time	pelvis_tilt	pelvis_list	pelvis_rotation	pelvis_tx	pelvis_ty	pelvis_tz	hip_flexion_r	hip_adduction_r	hip_rotation_r	knee_angle_r	knee_angle_r_beta	ankle_angle_r	subtalar_angle_r	mtp_angle_r	hip_flexion_l	hip_adduction_l	hip_rotation_l	knee_angle_l	knee_angle_l_beta	ankle_angle_l	subtalar_angle_l	mtp_angle_l	lumbar_extension	lumbar_bending	lumbar_rotation	arm_flex_r	arm_add_r	arm_rot_r	elbow_flex_r	pro_sup_r	wrist_flex_r	wrist_dev_r	arm_flex_l	arm_add_l	arm_rot_l	elbow_flex_l	pro_sup_l	wrist_flex_l	wrist_dev_l
10.92	6.411487975849099	6.305175908123065	62.54686776024279	0	0.9399999999999999	0	45.00000011886165	-9.999999988573334	0	60.00014061962232	1.047200005472	-4.999999851047217	0	0	45.00000011886165	-9.999999988573334	0	60.00014061962232	1.047200005472	-4.999999851047217	0	0	-6.345400241746045	1.308097413378848	-0.4603682493715691	71.54406864693588	24.77907038111465	23.93527682283205	101.6087205893227	45.00000025534055	0	0	0	-14.99999998961749	0	75.0001758461476	45.00000025534055	0	0
10.93	6.40612293606838	6.295709942717592	62.52916267943488	0	0.9399999999999999	0	45.00000011886165	-9.999999988573334	0	60.00014061962232	1.047200005472	-4.999999851047217	0	0	45.00000011886165	-9.999999988573334	0	60.00014061962232	1.047200005472	-4.999999851047217	0	0	-6.338037534503401	1.313297510342304	-0.4295791802563338	81.36008985981249	13.55206846356685	7.22356931621398	87.29223913926201	45.00000025534055	0	0	0	-14.99999998961751	0	75.0001758461476	45.00000025534055	0	0
10.94	6.391573590455534	6.264374206753223	62.53973655223858	0	0.9399999999999999	0	45.00000011886165	-9.999999988573334	0	60.00014061962232	1.047200005472	-4.999999851047217	0	0	45.00000011886165	-9.999999988573334	0	60.00014061962232	1.047200005472	-4.999999851047217	0	0	-6.296943141214149	1.313744059923172	-0.4712086834064209	80.66706471799534	4.541284174917969	39.52329659428083	149.9818881527979	45.00000025534055	0	0	0	-14.99999998961752	0	75.0001758461476	45.00000025534055	0	0
10.95	6.386852401505696	6.25394584083531	62.54245254225048	0	0.9399999999999999	0	45.00000011886165	-9.999999988573334	0	60.00014061962232	1.047200005472	-4.999999851047217	0	0	45.00000011886165	-9.999999988573334	0	60.00014061962232	1.047200005472	-4.999999851047217	0	0	7.205855740802524	6.713918865739244	-1.420069556417223	89.99107819888408	22.76075599806677	74.67772344480547	149.9978397070309	45.00000025534055	0	0	0	-14.99999998961754	0	75.0001758461476	45.00000025534055	0	0
10.96	6.373537561098816	6.24681021732538	62.53659053108045	0	0.9399999999999999	0	45.00000011886165	-9.999999988573334	0	60.00014061962232	1.047200005472	-4.999999851047217	0	0	45.00000011886165	-9.999999988573334	0	60.00014061962232	1.047200005472	-4.999999851047217	0	0	14.32933247245611	8.936681120562703	-2.33658316151349	89.99414109367986	21.58594816483866	79.25730130378621	149.9979961245756	45.00000025534055	0	0	0	-14.99999998961755	0	75.0001758461476	45.00000025534055	0	0
10.97	6.359863654578194	6.23147994884742	62.54186458962305	0	0.9399999999999999	0	45.00000011886165	-9.999999988573334	0	60.00014061962232	1.047200005472	-4.999999851047217	0	0	45.00000011886165	-9.999999988573334	0	60.00014061962232	1.047200005472	-4.999999851047217	0	0	26.62562386787745	5.940634046946859	-2.601799284215568	89.99635205293703	9.372281487544111	78.94765696647823	149.9978584144508	45.00000025534055	0	0	0	-14.99999998961755	0	75.0001758461476	45.00000025534055	0	0
10.98	6.361570398763309	6.227449624631327	62.52266653248537	0	0.9399999999999999	0	45.00000011886165	-9.999999988573334	0	60.00014061962232	1.047200005472	-4.999999851047217	0	0	45.00000011886165	-9.999999988573334	0	60.00014061962232	1.047200005472	-4.999999851047217	0	0	-6.030451012065221	-25.10069714367953	1.521253195858437	24.83710972839049	-119.9948494233296	-89.98134868476755	149.9988084509181	45.00000025534055	0	0	0	-14.99999998961781	0	75.0001758461476	45.00000025534055	0	0
10.99	6.366915989496128	6.225025050233352	62.506641274012	0	0.9399999999999999	0	45.00000011886165	-9.999999988573334	0	60.00014061962232	1.047200005472	-4.999999851047217	0	0	45.00000011886165	-9.999999988573334	0	60.00014061962232	1.047200005472	-4.999999851047217	0	0	-6.251852523372178	-3.454283175385902	1.334313767320249	66.20231893256143	-119.5998392230074	-89.95206625335388	149.9980899789073	45.00000025534055	0	0	0	-14.99999998961783	0	75.0001758461476	45.00000025534055	0	0
11	6.348926500374297	6.2061973759847	62.50768168831284	0	0.9399999999999999	0	45.00000011886165	-9.999999988573334	0	60.00014061962232	1.047200005472	-4.999999851047217	0	0	45.00000011886165	-9.999999988573334	0	60.00014061962232	1.047200005472	-4.999999851047217	0	0	-6.270701254917888	-0.3919764669957221	0.07685399125267338	72.68417348521618	-108.2961327826569	-89.78706151429193	149.9976882419109	45.00000025534055	0	0	0	-14.9999999896179	0	75.0001758461476	45.00000025534055	0	0
11.01	6.348897120532121	6.210276858931756	62.50930053526125	0	0.9399999999999999	0	45.00000011886165	-9.999999988573334	0	60.00014061962232	1.047200005472	-4.999999851047217	0	0	45.00000011886165	-9.999999988573334	0	60.00014061962232	1.047200005472	-4.999999851047217	0	0	-6.113011240324838	-6.032101376483511	3.077773665759393	52.16897233860205	-119.9308894618953	-89.96995560597486	149.9979887718916	45.00000025534055	0	0	0	-14.99999998961792	0	75.0001758461476	45.00000025534055	0	0
11.02	6.333563624341351	6.214063421745457	62.50707956567965	0	0.9399999999999999	0	45.00000011886165	-9.999999988573334	0	60.00014061962232	1.047200005472	-4.999999851047217	0	0	45.00000011886165	-9.999999988573334	0	60.00014061962232	1.047200005472	-4.999999851047217	0	0	-6.358373536980206	-12.91335524750823	-0.2967098476569153	45.2873907463773	-119.9879223066631	-89.97658643776616	149.9984485131484	45.00000025534055	0	0	0	-14.99999998961792	0	75.0001758461476	45.00000025534055	0	0
11.03	6.334032489071083	6.186183507237835	62.50177862929659	0	0.9399999999999999	0	45.00000011886165	-9.999999988573334	0	60.00014061962232	1.047200005472	-4.999999851047217	0	0	45.00000011886165	-9.999999988573334	0	60.00014061962232	1.047200005472	-4.999999851047217	0	0	-6.496286078604749	-12.48194977571587	-1.850723564357808	52.56895127988919	-119.9874113624963	-89.97643910552196	149.9985427244409	45.00000025534055	0	0	0	-14.99999998961797	0	75.0001758461476	45.00000025534055	0	0
11.04	6.329067012889488	6.201184744126688	62.51461348676057	0	0.9399999999999999	0	45.00000011886165	-9.999999988573334	0	60.00014061962232	1.047200005472	-4.999999851047217	0	0	45.00000011886165	-9.999999988573334	0	60.00014061962232	1.047200005472	-4.999999851047217	0	0	-6.298568804197792	-9.48039608252485	0.02900843272467731	60.2397305980131	-119.9757168678977	-89.97513612126178	149.9984218548261	45.00000025534055	0	0	0	-14.99999998961799	0	75.0001758461476	45.00000025534055	0	0
11.05	6.305641265366797	6.177870528628337	62.50419316730625	0	0.9399999999999999	0	45.00000011886165	-9.999999988573334	0	60.00014061962232	1.047200005472	-4.999999851047217	0	0	45.00000011886165	-9.999999988573334	0	60.00014061962232	1.047200005472	-4.999999851047217	0	0	-6.148924657758033	-4.629390455934629	2.397292379661066	63.48903673881478	-118.638642090467	-89.96199166641368	149.9980316376908	45.00000025534055	0	0	0	-14.99999998961807	0	75.0001758461476	45.00000025534055	0	0
11.06	6.314284565758531	6.131653686331862	62.49826138168423	0	0.9399999999999999	0	45.00000011886165	-9.999999988573334	0	60.00014061962232	1.047200005472	-4.999999851047217	0	0	45.00000011886165	-9.999999988573334	0	60.00014061962232	1.047200005472	-4.999999851047217	0	0	-6.202146831560352	-2.422203877095768	1.309381519404051	64.86454501024136	-111.7901122275965	-89.92147117063385	149.9976904608648	45.00000025534055	0	0	0	-14.99999998961813	0	75.0001758461476	45.00000025534055	0	0
11.07	6.315868494644502	6.113292088868936	62.49137122935547	0	0.9399999999999999	0	45.00000011886165	-9.999999988573334	0	60.00014061962232	1.047200005472	-4.999999851047217	0	0	45.00000011886165	-9.999999988573334	0	60.00014061962232	1.047200005472	-4.999999851047217	0	0	-6.198785854490503	-1.374870401771912	0.9320467200803551	63.08728511932139	-111.3697360099033	-89.89178607625182	149.9975425175873	45.00000025534055	0	0	0	-14.99999998961817	0	75.0001758461476	45.00000025534055	0	0
